<svg width="739" height="690" xmlns="http://www.w3.org/2000/svg">
 <g id="Layer_1">
  <title>Layer 1</title>
  <g id="svg_1" stroke="null">
   <g id="svg_2" transform="matrix(1.0018 0 0 -0.997137 91.3751 2180.98)" stroke="null">
    <g id="svg_3" transform="translate(0 736.804) scale(0.1 0.1)" stroke="null">
     <path d="m3138.85195,9745.8c-98.7,129.3 -155.6,332.9 -101.2,576.4c103.7,462.3 272.8,631.3 551.4,875.6c260.3,228.2 -112.1,1517.1 13.4,1835.7c81.2,206.2 158.2,317.8 405,215.5c179.1,-74.4 275.3,-203.7 400,-302.6c359.8,24.5 589.1,20.3 917.1,-97.2c234.3,-82.8 523,-278 619.3,-418.3c185.7,-272.2 281.1,-369.4 65.2,-753.9c-146.4,-261.2 -291.2,-333.9 -534.7,-495.3c50.2,-73.5 297.1,-322.9 391.6,-367.6c149,238.3 144,87.9 189.2,464c404.1,145.3 281.1,-244.3 210.8,-397.3c-79.5,-172.4 -153.9,-190.1 -219.2,-314.4c292.9,-121.7 608.3,-643.2 279.5,-906c-151.5,162.3 -1351.4,1354.8 -1446.8,1399.6c-119.7,-130.2 -400,-362.6 -456.1,-552.7c198.3,-117.5 592.5,-495.3 677,-835.1c163.2,-656.7 -533.1,-447.1 -896.2,-356.6c0,-254.4 97.9,-273 322.1,-315.3c856.1,-158.9 1340.6,398.9 1433.5,435.3c20,-619.5 55.2,-908.6 -189.2,-1392c286.2,-16.9 563.2,-115.8 517.2,-433.6l-1437.6,3.4c-77.8,90.4 -233.5,389.6 -633.5,387.9c118.8,-37.2 253.6,-207.9 237.7,-391.3c-870.3,8.4 -1855.2,-68.5 -2699.53,55.8c-377.39,56.6 -753.95,155.5 -1051.01,335.5c-123.84,75.2 -307.94,222.3 -383.25,329.6c-676.13,956.8 -126.36,1901.7 22.59,2833.9c71.97,448.8 60.25,872.2 -206.68,1154.5c-341.42,360.1 -605.01,268.8 -1060.22,266.2c103.76,717.6 501.24,1412.3 1112.93,1718.3c1054.36,529.1 2455.16,-84.5 3014.17,-1303.3c806.6,-1759.6 -969.88,-2906.5 -1190.79,-4053.4c-62.76,-324.6 25.1,-523.2 178.24,-723.5c100.41,-131 330.53,-304.3 537.25,-376.1c-236.84,409.1 -191.66,557 -44.4,1042.9c173.2,572.2 187.5,535 455.2,855.4z" id="svg_4" fill="white" stroke-width="2.29043" stroke-miterlimit="10" stroke="#221f20"/>
    </g>
   </g>
  </g>
 </g>

</svg>