<?xml version="1.0" standalone="no"?>
<!DOCTYPE svg PUBLIC "-//W3C//DTD SVG 20010904//EN"
 "http://www.w3.org/TR/2001/REC-SVG-20010904/DTD/svg10.dtd">
<svg version="1.0" xmlns="http://www.w3.org/2000/svg"
 viewBox="0 0 2600.000000 2600.000000"
 preserveAspectRatio="xMidYMid meet">
<metadata>
Created by potrace 1.15, written by Peter Selinger 2001-2017
</metadata>
<g transform="translate(0.000000,2600.000000) scale(0.100000,-0.100000)"
fill="#ffffff" stroke="none">
<path d="M18145 24395 c-247 -35 -461 -103 -695 -222 -134 -68 -178 -85 -235
-94 -38 -5 -81 -12 -93 -15 -38 -8 -17 12 59 57 137 79 261 128 629 247 53 17
-360 7 -490 -12 -226 -34 -439 -100 -629 -195 -109 -54 -275 -156 -337 -207
-35 -28 -65 -39 -185 -68 -79 -19 -153 -38 -164 -42 -18 -7 -19 -6 -6 10 25
31 208 146 329 208 l117 60 -84 -6 c-352 -28 -682 -164 -981 -405 -68 -55
-128 -95 -170 -112 -36 -14 -67 -24 -70 -22 -3 3 22 30 55 60 167 152 301 246
490 345 61 32 106 58 102 58 -22 0 -175 -44 -297 -85 -278 -95 -455 -201 -755
-452 -265 -221 -346 -276 -540 -365 l-60 -28 109 105 c125 122 346 302 566
460 83 61 159 116 169 123 27 22 -254 -126 -429 -226 -319 -182 -561 -357
-765 -554 -104 -99 -236 -254 -283 -329 -12 -20 -70 -76 -129 -125 -153 -127
-152 -126 -123 -79 162 270 391 552 590 730 l65 58 -50 -28 c-187 -104 -451
-326 -668 -562 -356 -389 -637 -799 -863 -1261 -47 -96 -87 -172 -90 -170 -7
7 50 192 101 328 73 195 119 299 256 572 71 142 129 261 129 264 0 8 -188
-260 -300 -426 -198 -295 -359 -613 -461 -908 -38 -110 -100 -351 -114 -440
-14 -88 -16 -29 -6 130 37 542 180 980 451 1388 97 146 89 141 -59 -42 -276
-337 -474 -764 -570 -1230 -16 -79 -33 -169 -36 -202 -5 -40 -20 -82 -50 -135
-65 -118 -160 -370 -203 -541 -53 -205 -72 -370 -72 -605 0 -479 94 -865 425
-1755 123 -329 217 -601 211 -607 -5 -6 -172 361 -395 870 -415 944 -614 1350
-792 1615 l-49 72 0 143 c0 486 -101 904 -283 1171 -63 93 -183 212 -277 275
-268 179 -635 231 -1075 151 l-108 -19 -54 48 c-91 81 -218 131 -334 131 -125
0 -306 -70 -444 -172 -38 -28 -126 -108 -195 -177 -223 -224 -404 -492 -598
-882 l-117 -236 -90 -13 c-445 -60 -895 -209 -1290 -428 -416 -230 -763 -498
-1165 -901 -448 -449 -818 -920 -1427 -1816 -105 -154 -216 -322 -247 -374
-250 -413 -333 -760 -235 -989 64 -149 207 -248 384 -267 55 -6 121 5 176 29
12 5 25 -9 54 -55 83 -134 226 -273 403 -392 46 -31 89 -58 94 -59 6 -2 -61
-76 -149 -163 -100 -101 -192 -204 -248 -280 -49 -66 -91 -124 -95 -128 -4 -4
-56 9 -116 30 -96 32 -121 37 -204 36 -153 0 -233 -39 -450 -219 -184 -153
-216 -174 -267 -174 -74 0 -183 -29 -278 -75 -156 -75 -285 -216 -335 -365
-32 -95 -23 -210 21 -270 9 -13 3 -29 -29 -79 -67 -104 -69 -188 -5 -280 81
-116 311 -252 608 -358 39 -14 75 -30 82 -37 6 -6 25 -46 41 -88 58 -146 147
-260 230 -295 51 -21 137 -19 207 6 54 19 60 19 68 5 5 -9 37 -50 71 -92 139
-172 350 -306 548 -348 104 -22 281 -15 368 16 119 41 227 116 307 212 19 24
39 44 44 46 21 8 166 -257 195 -355 16 -53 18 -56 26 -33 6 14 12 62 15 107
l6 82 38 -48 c58 -72 139 -215 194 -338 26 -59 51 -112 56 -118 5 -5 9 56 9
143 0 84 2 152 5 152 11 0 509 -416 538 -450 88 -103 162 -279 196 -464 l18
-101 17 55 c20 67 46 210 46 256 0 19 3 34 6 34 3 0 80 -58 172 -129 618 -477
1141 -808 1597 -1012 271 -122 613 -224 818 -245 37 -4 69 -10 72 -14 7 -12
-22 -108 -53 -174 -92 -196 -244 -331 -452 -402 l-65 -22 49 -7 c101 -16 289
13 400 60 16 7 17 5 11 -16 -12 -44 -143 -146 -278 -217 l-57 -31 46 -7 c26
-4 93 -4 150 -1 l103 5 -18 -37 c-33 -63 -101 -140 -165 -186 -64 -45 -199
-115 -226 -116 -37 -1 41 -20 117 -28 77 -8 204 -1 263 14 l25 6 16 -198 c12
-139 13 -205 6 -223 -5 -14 -13 -81 -17 -150 -9 -143 -36 -283 -86 -441 -53
-168 -92 -253 -189 -415 -10 -16 25 14 77 67 83 84 156 181 246 329 l22 35 0
-90 c0 -153 -40 -375 -90 -508 -11 -28 -18 -53 -16 -55 8 -7 145 179 188 254
l43 75 17 -93 c43 -232 44 -472 2 -631 -16 -62 -61 -160 -96 -210 -11 -16 -18
-30 -16 -33 9 -8 122 81 167 132 24 27 64 79 89 117 25 37 46 67 48 67 1 0 21
-57 45 -127 23 -71 69 -202 102 -293 l59 -165 -6 -389 c-3 -215 -2 -386 3
-380 4 5 41 88 81 184 39 96 74 177 76 179 2 2 8 -9 14 -25 105 -277 408 -955
650 -1451 87 -177 124 -263 115 -266 -7 -3 -52 -8 -101 -12 -118 -9 -320 6
-779 60 -209 25 -474 54 -589 65 l-209 20 -97 94 c-256 249 -392 264 -614 71
-47 -41 -91 -75 -98 -75 -7 0 -65 23 -128 51 -326 144 -429 179 -533 179 -77
0 -164 -35 -242 -98 -246 -199 -605 -538 -742 -702 -170 -205 -230 -350 -173
-423 74 -93 389 -51 699 95 145 68 236 97 367 118 69 11 142 29 162 39 41 21
94 74 139 138 l30 42 5 -72 c5 -85 39 -160 96 -220 77 -80 148 -104 240 -81
163 40 516 31 2247 -61 154 -8 406 -18 560 -21 254 -6 287 -8 355 -29 322 -99
931 -163 1768 -186 700 -19 1513 17 1709 76 29 9 69 12 112 8 75 -6 305 11
431 32 47 8 159 23 250 35 501 62 978 166 1440 315 98 32 178 50 290 65 400
55 670 122 858 212 46 22 81 42 80 43 -2 2 -39 -5 -83 -16 -98 -23 -248 -39
-364 -39 l-86 1 175 88 c96 49 193 98 215 109 22 12 135 51 250 88 407 128
666 255 885 431 79 64 209 195 249 251 21 30 12 26 -65 -31 -98 -74 -239 -150
-359 -196 -91 -36 -225 -75 -231 -68 -3 2 28 31 68 63 40 32 118 97 173 145
67 58 119 95 155 109 94 37 257 126 342 187 150 108 309 282 422 465 43 68 45
69 -79 -25 -80 -62 -255 -170 -263 -162 -2 2 18 30 46 62 73 85 192 240 267
348 36 52 79 103 94 114 34 24 414 453 508 573 137 176 221 332 262 492 12 44
19 81 17 83 -2 2 -16 -18 -31 -44 -65 -111 -170 -224 -293 -314 l-42 -31 36
78 c20 44 63 142 96 219 44 102 81 169 137 247 163 230 370 603 501 903 53
121 140 341 140 352 0 4 -36 -47 -80 -111 -123 -179 -369 -501 -377 -492 -9 8
48 188 69 222 53 84 169 315 213 424 68 167 109 328 155 605 22 135 52 300 65
367 14 67 24 123 22 125 -2 1 -56 -106 -121 -239 -174 -360 -176 -365 -171
-338 12 62 36 314 51 515 l15 220 44 90 c104 213 162 489 179 855 7 144 17
154 -81 -95 -31 -77 -73 -174 -94 -215 l-39 -75 4 170 c2 94 11 224 19 291 60
460 37 1058 -73 1924 l-38 295 -1 -180 c-3 -382 -28 -1082 -38 -1072 -2 2 -33
156 -68 342 -36 185 -84 423 -106 529 -40 189 -40 192 -27 276 20 128 17 590
-5 762 -34 274 -111 620 -212 953 -105 343 -133 453 -140 530 -10 126 -29 239
-90 535 -31 151 -59 313 -62 358 -10 141 -34 44 -58 -232 -8 -93 -16 -170 -18
-173 -11 -11 -84 608 -88 750 l-2 67 116 233 c65 130 153 289 201 362 47 71
86 131 86 133 0 7 -193 -132 -291 -210 -60 -48 -109 -81 -109 -75 0 33 23 189
36 247 14 61 18 67 60 93 25 15 60 27 78 27 40 0 80 28 198 138 l87 81 70 -52
c103 -77 214 -141 345 -197 64 -28 119 -50 122 -50 4 0 -48 52 -115 116 -67
64 -150 154 -184 200 -79 105 -155 244 -134 244 9 0 40 -48 77 -117 101 -193
174 -271 330 -352 77 -40 228 -96 237 -88 2 3 -10 15 -27 27 -115 82 -220 200
-259 289 -21 51 -46 159 -38 167 2 3 22 -4 45 -13 64 -28 164 -152 427 -528
203 -290 288 -399 414 -528 123 -126 143 -138 90 -50 -52 85 -137 255 -174
348 -42 105 -154 420 -150 423 1 1 29 -14 62 -34 49 -31 61 -44 72 -78 22 -72
149 -326 205 -410 165 -248 377 -408 682 -516 81 -28 353 -100 378 -100 6 0
-43 29 -110 64 -276 145 -450 287 -560 457 -44 68 -98 179 -90 187 3 2 65 -38
138 -88 102 -71 146 -109 188 -162 76 -95 365 -379 480 -470 173 -138 402
-277 500 -302 24 -7 24 -6 -5 16 -87 65 -334 333 -320 346 9 9 169 -99 278
-188 240 -194 330 -259 430 -308 91 -45 322 -132 350 -132 6 0 -23 32 -64 71
-41 39 -65 68 -54 64 11 -4 70 -22 130 -41 61 -20 171 -55 245 -79 74 -24 170
-51 212 -59 83 -17 278 -22 278 -7 0 5 -20 21 -45 35 -25 15 -45 30 -45 34 0
4 29 15 64 25 78 23 163 65 218 109 l41 32 -6 -29 c-4 -17 -9 -41 -13 -55 -9
-38 107 85 167 177 51 79 104 204 122 290 6 29 15 53 20 53 5 0 7 -88 5 -199
-2 -123 0 -193 6 -183 21 37 76 217 95 311 42 200 54 357 47 606 -3 132 -12
268 -21 320 -18 107 -30 260 -16 205 18 -69 61 -368 72 -505 13 -162 6 -371
-16 -464 -9 -35 -14 -66 -11 -68 5 -6 53 130 70 202 65 268 74 769 21 1235 -8
69 -20 172 -26 230 -11 98 -10 119 15 295 62 436 42 700 -76 973 -22 54 -41
111 -40 127 0 17 4 80 7 140 8 129 -8 234 -56 373 -62 175 -208 427 -360 617
-32 41 -56 75 -53 75 19 0 152 -122 205 -187 71 -89 112 -167 150 -283 24 -73
28 -81 34 -58 12 47 -14 237 -45 330 -37 109 -67 169 -138 278 -74 112 -285
323 -474 474 l-147 117 -64 117 c-35 64 -63 119 -61 121 4 5 194 -133 314
-228 52 -41 140 -120 194 -175 l100 -101 -35 63 c-46 85 -191 278 -329 437
-62 72 -254 272 -428 445 -173 173 -335 342 -361 375 -41 53 -177 217 -235
284 l-21 24 30 -17 c66 -38 269 -186 372 -270 119 -98 506 -482 593 -588 30
-37 56 -65 59 -63 4 5 -131 228 -222 365 -236 354 -516 675 -781 895 -58 49
-106 90 -106 91 0 6 174 -52 262 -87 204 -81 507 -248 763 -419 147 -99 155
-100 58 -8 -518 491 -844 705 -1302 858 -130 43 -197 61 -426 114 l-60 14 65
-5 c288 -21 704 -98 926 -173 88 -29 47 -3 -146 94 -399 201 -919 368 -1469
471 -47 8 -86 17 -89 19 -9 10 190 21 358 20 243 -1 435 -22 779 -85 90 -16
168 -28 173 -27 15 5 -332 143 -516 205 -385 130 -597 167 -1068 187 -247 10
-330 16 -351 28 l-29 14 69 12 c157 27 462 52 653 52 74 0 109 4 100 10 -19
10 -257 71 -416 105 -243 53 -352 66 -684 80 -234 10 -340 19 -378 30 -29 9
-50 20 -48 24 8 12 107 38 221 58 83 14 169 17 513 17 227 1 404 4 395 8 -10
4 -106 28 -213 52 -563 130 -739 147 -1100 106 -96 -11 -245 -23 -331 -26
-142 -6 -165 -5 -250 16 -52 12 -98 26 -102 30 -8 7 204 55 388 88 l100 18
-49 7 c-136 19 -484 28 -678 17 -110 -6 -206 -14 -211 -17 -6 -4 -144 -7 -306
-8 -163 -1 -345 -5 -406 -9 -128 -9 -127 -5 22 54 135 53 317 103 478 129 72
12 141 25 155 28 97 24 -538 40 -695 18z m-6547 -3946 c-12 -94 -16 -596 -9
-1054 2 -126 0 -322 -5 -435 l-9 -205 -38 129 c-165 554 -152 1056 39 1594 15
40 28 71 30 69 2 -2 -2 -46 -8 -98z m13027 -1365 c91 -119 149 -244 170 -359
7 -38 6 -37 -43 35 -28 41 -90 122 -139 179 -85 99 -89 106 -115 200 -15 53
-28 100 -28 106 0 16 99 -87 155 -161z m170 -1015 c27 -80 60 -228 69 -309 4
-33 -8 3 -29 89 -19 78 -46 180 -60 226 -40 130 -25 126 20 -6z m-5192 -1182
l59 -53 -96 -23 c-93 -22 -146 -22 -146 0 0 11 109 129 119 129 3 -1 32 -24
64 -53z m11 -3052 c28 -235 50 -495 44 -540 -1 -16 -36 125 -76 313 -39 189
-70 347 -67 352 6 9 30 131 41 205 l7 50 13 -85 c7 -47 25 -179 38 -295z
m-14502 23 c132 -81 292 -128 641 -188 415 -73 542 -117 651 -226 88 -88 72
-117 -67 -122 -209 -8 -608 69 -1314 254 l-62 16 -3 193 -3 192 47 -41 c26
-23 76 -58 110 -78z"/>
</g>
</svg>
